<svg xmlns="http://www.w3.org/2000/svg" viewBox="0 0 952.92 353.15"><defs><style>.cls-1{fill:#fff;}</style></defs><g id="Capa_2" data-name="Capa 2"><g id="Capa_11" data-name="Capa 11"><path d="M630.83,104.33c0-9.88.08-16.35,0-21.65,0-4.92,0-10.64,0-18.09-.51,0-14.18,0-14.77,0-1.29,0-9.86,0-11.49,0v75.24a1.39,1.39,0,0,1-2.76.27C598.22,122,592,84.18,583.13,74.74c-9-9.63-23.49-21-43.35-21H471.26a1.4,1.4,0,0,0-1.4,1.4c0,13.26-2.34,38.53,6.22,53.77,3.26,5.81,2.47,12.65-.57,18.52-1.25,2.42-5.65,0-5.65,2.32v41.68a1.42,1.42,0,0,0,.41,1,1.36,1.36,0,0,0,1,.41l18.88-1.39a41.89,41.89,0,0,0,15-4.17,50.86,50.86,0,0,0,5.33-2.78c5.91-3.53,6.21-4.51,7.25-5.51A58.22,58.22,0,0,0,529,142.59c2.92-5.48,8.19-24.29,6.39-35.1l6.48,0h0l0,142.67h-5c-.13-9.48-4.61-27.14-6.78-32.5a38.79,38.79,0,0,0-9.56-14.89,35.7,35.7,0,0,0-14-8c-5.33-1.63-10-3.34-17.34-4.63-4.4-.79-17.89-2.19-17.89-2.19a1.4,1.4,0,0,0-1.4,1.4l.1,22.88a12.72,12.72,0,0,0,1.39,5.74,123.14,123.14,0,0,1,9.76,30.84c1.06,6.46-4,8.88-10,11.57-.7.32-1.16,1.12-1.27,2.68-1.09,14.74-.15,22.24-.05,32.05a.85.85,0,0,1-1.51.55c-3.44-4.41-2.37,2.51,1.5,6.07h0c-.05,4.45,0,4.4,0,5.38,0,4,0,6.67,0,11.86a1.44,1.44,0,0,0,1.41,1.45c5.14.06,11.8,0,16.42,0h43.48c10.68,0,11.5.43,20-3.28s14.91-10.95,21.58-17.18S584,284.2,588.9,275.75c4.68-8.08,9.78-45.95,10.37-55.54a1.38,1.38,0,0,1,1.35-1.29h3.64a1.41,1.41,0,0,1,1.41,1.41l-.83,82.81c5.6,0,9,0,12.7,0,4.66,0,12,0,13.29,0-.06-5.06-.09-10.6,0-15,.1-4.61,0-9.49,0-15.57Z"/><path d="M952.92,217.67c0-10.9-4.31-37-7.82-47.4a83.88,83.88,0,0,0-15.51-27.71,77.54,77.54,0,0,0-24.37-19.1,73.35,73.35,0,0,0-68.3,2.26c-1.66,1-3.41,2.14-5.36,3.55a101.32,101.32,0,0,0-8.29,6.72A21.82,21.82,0,0,0,805,125.88l-13.68-.09-.75-47.58a21.83,21.83,0,0,0-19.44-21.36l-5.85-.65a22.38,22.38,0,0,0-14.08,2.95,21.87,21.87,0,0,0-10.41,21.38c.2,1.65.49,4.89.72,11,0,.35,0,.7,0,1.05a42.25,42.25,0,0,0-4.69-6,38.82,38.82,0,0,0-56.83,0,40.1,40.1,0,0,0-10,18.64V55.42a21.84,21.84,0,0,0-21.84-21.84H624.28a28.79,28.79,0,0,0-26.61-17.89H400.59a21.83,21.83,0,0,0-21.78,20.56h-8.22a21.84,21.84,0,0,0-21.84,21.84v8a21.83,21.83,0,0,0,22.63,21.83c.7,0,2,0,3,0h7.26c0,7,0,14.35,0,20.17v12l-.24,13.47a36.6,36.6,0,0,0-6.9-1.78c-11.34-1.78-16.69-.93-18.44-.65l-1.15.19a79.83,79.83,0,0,0-40,19.82c-1,.94-2,1.86-2.84,2.78a66.11,66.11,0,0,0-23.74-24.54,62.2,62.2,0,0,0-7.85-4,55.84,55.84,0,0,0-16-4,31.08,31.08,0,0,0-18.6,3.52,50.17,50.17,0,0,0-30.37,8.22,61.72,61.72,0,0,0-6.48,5.41l.08-10.47a21.57,21.57,0,0,0,.26-3.24V92.09l.08-10.63-.08,0V21.84A21.84,21.84,0,0,0,187.46,0h-7.32a21.86,21.86,0,0,0-20.37,13.93A96.83,96.83,0,0,0,145.29,8c-5.19-1.66-10.42-3.29-15.55-4.87C122.84,1,114.44,0,104,0A110.4,110.4,0,0,0,62.48,7.68,102.42,102.42,0,0,0,29.42,29,94.77,94.77,0,0,0,7.5,61.67,104.13,104.13,0,0,0,.11,96.35L0,96.27l.05,3c0,.69,0,1.38,0,2.07,0,2,.07,3.94.17,5.87.25,16.45,3.55,24.3,19,46.42a45.51,45.51,0,0,1,9.29,48.19c-12.29,31-26.1,51.27-25.66,80.14v49.31a21.84,21.84,0,0,0,21.84,21.84h6.92A21.85,21.85,0,0,0,52.1,338.86c3.11,1.34,6.36,2.68,9.7,4a167.88,167.88,0,0,0,21.5,7,120.41,120.41,0,0,0,29.89,3.29c17.35,0,33.22-2.78,47.14-8.25a110.62,110.62,0,0,0,36.27-22.8c.4-.38.78-.79,1.17-1.18,8.76,7.42,19.75,11.38,32.8,11.8,1,0,1.9,0,2.7,0h1.89a63.52,63.52,0,0,0,6.48-.3A64.29,64.29,0,0,0,259.41,328a93.61,93.61,0,0,0,16.29-8.52l.72-.51,1-.79c.62.6,1.27,1.18,1.94,1.75a47.19,47.19,0,0,0,6.93,4.86l.61.35a48.48,48.48,0,0,0,14.52,5.52,27.46,27.46,0,0,0,4.94.61c.47,0,.91.05,1.33.08,4.82.31,14.61.94,25.33-7.59l2.3,1.23a73.55,73.55,0,0,0,8.95,4h0l.11,0a59.08,59.08,0,0,0,13.72,3.25l1.18.13a53.21,53.21,0,0,0,6.05.34c1.49,0,3-.06,4.48-.19H370a50.92,50.92,0,0,0,14.24-3.32v.51A23.24,23.24,0,0,0,407.45,353H603.17a23.27,23.27,0,0,0,22.6-17.89h49.75A21.71,21.71,0,0,0,688,331.18l51.31-.21a21.74,21.74,0,0,0,13.17-4.51,22.22,22.22,0,0,0,4,2.59,39.61,39.61,0,0,0,8.17,3.12,48.28,48.28,0,0,0,8.86,1.36c1.13.07,2.26.1,3.39.1a57.69,57.69,0,0,0,47.64-25.86,82.38,82.38,0,0,0,14.35,10,70.35,70.35,0,0,0,34.07,8.76,63.46,63.46,0,0,0,28.66-7,89.26,89.26,0,0,0,23-16.76,65.2,65.2,0,0,0,4.68-5.27,99.71,99.71,0,0,0,18.71-36.95c1.35-5,2.31-8.84,3-11.77a21.9,21.9,0,0,0-3.21-16.87A21.8,21.8,0,0,0,952.92,217.67ZM399.09,288.25a35,35,0,0,1-5.26,6.85c-3,3.18-6.1,6.06-8.75,8.41a29.23,29.23,0,0,1-16.94,7.28H368a32.74,32.74,0,0,1-6.26-.09l-1.16-.13a36.78,36.78,0,0,1-8.66-2.05l-.1,0a50.29,50.29,0,0,1-6.28-2.8c-6.34-3.35-9.44-5.4-9.44-5.4a91.93,91.93,0,0,1-7.49-6.13,30.91,30.91,0,0,1-8.28,11.77,1.07,1.07,0,0,0-.16.14c-5.36,4.66-8.35,3.51-13.26,3.37a6.93,6.93,0,0,1-1.1-.18,27,27,0,0,1-8-3.05l-.58-.34a25.53,25.53,0,0,1-3.75-2.63h0a19.36,19.36,0,0,1-3.91-4.51c-.19-.31-.39-.67-.6-1.06a33,33,0,0,1-3.36-9.78c-.42-2.35-.88-5.12-1.08-6.93a.7.7,0,0,0-1.22-.4c-2.85,3.25-7.17,8.46-9.65,11.06-2.83,3-6.71,7.2-10.22,9.81a70.38,70.38,0,0,1-12.21,6.34,42.56,42.56,0,0,1-11.73,3,75.23,75.23,0,0,1-8.22.17c-10.4-.33-18-3.76-23.78-11.28a41.81,41.81,0,0,1-8-19.71,75.27,75.27,0,0,1-17.92,26.42,88.44,88.44,0,0,1-29.17,18.25q-17.13,6.74-39.15,6.74a99.88,99.88,0,0,1-24.48-2.61A146,146,0,0,1,70,322.61Q63.42,320,57.5,317.4a31.43,31.43,0,0,0-12.84-2.61,10.2,10.2,0,0,0-9,5,26.9,26.9,0,0,0-4.07,11.52H24.69v-100h6.92q1.62,20,9.18,35.64A85.47,85.47,0,0,0,60,293.28,79.42,79.42,0,0,0,86.3,309.36a86.43,86.43,0,0,0,30.2,5.43,55.69,55.69,0,0,0,19.59-3.48,54.41,54.41,0,0,0,16.73-9.77,48.6,48.6,0,0,0,11.84-15.22,44.28,44.28,0,0,0,4.49-20.21c0-11.88-2.57-27.62-9.89-36.32s-48.79-50-44.36-26.55c1.15,6.07-5.9-9.9-18.31-18.22C84.56,177,72,170.9,61.18,162.64s-21-12.21-28.35-22.79-11-23.4-11-38.47a83.18,83.18,0,0,1,5.9-31.51A72.56,72.56,0,0,1,44.63,44.66a80,80,0,0,1,26-16.73A88.23,88.23,0,0,1,104,21.84q12.21,0,19.33,2.17t15.26,4.78a75.55,75.55,0,0,1,13.63,5.87,26.6,26.6,0,0,0,12.82,3.7q5.7,0,10.38-5.65t4.68-10.87h7.32v103h-7.73q-3.66-40.42-23-63.46t-52.7-23A47.44,47.44,0,0,0,83.49,42.7,51.52,51.52,0,0,0,57.85,69.22,42.52,42.52,0,0,0,54.4,85.73c0,10.44,2.63,21.9,10.09,30s17.91,19.07,29.17,26.31,29.46,15.42,37.48,13.79c.28,5,20.83,18.64,32.09,27s23.89,16.73,31.36,27.16,11.17,22.55,11.19,36.43c.11-.17.22-.34.34-.51,4.84-6.83,10-9.29,18.33-14.32,9.9-6,14.87-7.94,23.76-11.48s21.12-6.11,34-1.41l2.19-16.12c0-14.35-3.27-20.29-6.52-30.07-5.8-17.48-20-20.76-27.67-20.76-4.24,0-13.37,3.07-16.1,4.44a16.19,16.19,0,0,0-6.36,5.47c-1.51,2.28-4.64,5.45-5.15,8.29a26.49,26.49,0,0,0,0,9.1c1.66,8.74,23,10.38,16.4,20.75-2.41,3.82-8.59,8-15.6,6.37-3.93-.92-10.39-5.75-12.82-9.29A22.71,22.71,0,0,1,207,183.78a27.23,27.23,0,0,1,4.09-14.53c2.73-4.44,12.11-14.87,16.86-18.17s16.88-6.87,22.7-2.23a.06.06,0,0,0,.09,0c5.14-5.69,7.71-6.08,11.55-5.71a34.26,34.26,0,0,1,9.76,2.48,40.47,40.47,0,0,1,5.09,2.58,44.68,44.68,0,0,1,18.72,22.54c.11.3.23.6.35.92a90.25,90.25,0,0,1,5.69,34.13c-.54,21.27.28,57.47.65,71.65a39.28,39.28,0,0,0,1.68,10.2,1.86,1.86,0,0,0,.11.33,25.52,25.52,0,0,0,1,2.54c.58,1.27,2.25,4.51,2.25,4.51l1,1.08.94.57a8.27,8.27,0,0,0,2.42,1.05,8.64,8.64,0,0,0,4.75-.25,13.21,13.21,0,0,0,5.22-3,39.52,39.52,0,0,0,3-4.1,32.74,32.74,0,0,1-4-5.1,95.34,95.34,0,0,1-10.36-25.08,116.65,116.65,0,0,1-3.81-30.14,99.06,99.06,0,0,1,4.77-30.63A97.09,97.09,0,0,1,324.41,173a39.33,39.33,0,0,1,5.28-5.82,58.25,58.25,0,0,1,29.13-14.36l.64-.1c3.22-.52,8.68.19,11.64.65a14.1,14.1,0,0,1,4.43,1.47h0a67.76,67.76,0,0,1,24.1,21.72c1,1.45,1.93,2.76,2.7,3.72l1.09-60c0-8.75.06-49.94,0-54.25-3.6,0-6.83,0-7.76,0-.51,0-19.18,0-20,0-1,0-4.19,0-5.15,0v-8h55.6c-1.44,1.45-5.57,3.41-5.57,4.73V282.5c0,5.27,0-2.51,0,16.24l13.55.14V310h-31.8V288.17Zm276.43,25H604.74l-.17,16.48a1.41,1.41,0,0,1-1.4,1.41H407.45a1.41,1.41,0,0,1-1.4-1.41v-8.83a1.4,1.4,0,0,1,1.4-1.4c7.25,0,14.51-.05,18.38,0,6.71.07,5.62.06,10.64,0a1.38,1.38,0,0,0,1.36-1.37c.06-4.48,0-5.94,0-10.87,0-6.52,0-11.78,0-19.79V81.18c0-8,0-13.68,0-19.78-.07-5.93,0-6.79,0-13.11h0c-5.24.06-17.28,0-22.89,0-6.26,0-7.21.07-14.32,0h0c-.09-1.3,0-1.62,0-4.12V37.53H597.67a6.9,6.9,0,0,1,6.9,6.9v11h43.6v65.81a4.26,4.26,0,0,0-.23,7.46,4.29,4.29,0,0,0,.23,6.75v1.72a3.6,3.6,0,0,1,.92-.14c3.83,0,6.92,6.52,6.92,14.56s-3.09,14.56-6.92,14.56a3.22,3.22,0,0,1-.92-.15v4.08c-1.89.22-3.36,2.2-3.36,4.62s1.47,4.4,3.36,4.62v93.3c0,12.41-.14,24.88,0,30.53,11.72.14,16,0,27.35,0ZM695.93,101.5a17,17,0,0,1,25,0,19.5,19.5,0,0,1,0,26.41,17,17,0,0,1-25,0,19.5,19.5,0,0,1,0-26.41Zm43.26,207.63-57.46.24v-6.08h18.33c0-3.92-.18-11.76,0-15.93.16-3.84,0-8.72,0-14.12l-.22-47.34c4-2.13,6.74-6.85,6.74-12.36s-2.82-10.32-6.85-12.42v-.8c0-8.78-.06-15.15,0-19.25s0-16.54,0-21.6a1.87,1.87,0,0,0-1.88-1.87c-3,0-8.25,0-10,0s-5,.06-7.51,0v-6.36h40.13v16.13c-2,.67-3,3.1-2.34,5.51a5,5,0,0,0,2.34,3v1.54a3.17,3.17,0,0,1,1.7,1.73,5.47,5.47,0,0,1,.72-.08c2-.09,3.64.86,3.88,2.15a12.66,12.66,0,0,1,1.8,6.92,15.44,15.44,0,0,1-.44,3.7,3.84,3.84,0,0,0-2.35-.81,3.89,3.89,0,0,0-3.17,1.64l-2.7.78.56,1.92v77.88c0,11-.06,24.48,0,29.76h3.47a4.61,4.61,0,0,0,7.92,0h7.33Zm69.91-18.46c-6.11,13.34-19.65,22-34.3,21.06A26.87,26.87,0,0,1,770,311a18.39,18.39,0,0,1-3.68-1.46h0a4.37,4.37,0,0,0-4.37-4.37,4.32,4.32,0,0,0-1.73.36,34.57,34.57,0,0,1-12.12-22.74,67.29,67.29,0,0,1-.43-7.44l-.22-119.73H725.69L725.63,143c4.83,0,5.51.73,13.64-1.51,5.16-1.43,11.59-7.11,15.11-13,.51-.83,1-1.87,1.63-3a72.86,72.86,0,0,0,7.35-34.87c-.18-4.65-.45-9.37-.87-12.81l6.26.69,1.09,68.93,2.27,0A2.17,2.17,0,0,0,774,149a2.14,2.14,0,0,0,1.84-1.47l2.51,0a1.63,1.63,0,0,0,3.26,0l23.29.16v7.91H770.12V275.9a25.66,25.66,0,0,0,1.94,10.84,8.58,8.58,0,0,1,4.35-1.19c4.9,0,8.93,4.18,9.45,9.55a13.13,13.13,0,0,0,1.47.09,11.6,11.6,0,0,0,3.94-.95,28.3,28.3,0,0,0,13.24-10.95c3.43-5.23,8-12.49,9-15.13l1,7.68A85.29,85.29,0,0,1,809.1,290.67Zm32.23-56.62,6,23.48.43,1.69.57,2s1.74,5.23,2.62,8c5.26,16.68,20.33,28.7,32.7,24.82,7.91-.29,14.67.54,10.69-11.84l1.13-.38a47.72,47.72,0,0,0,13.95-7.84,34.29,34.29,0,0,0,2.71-2.5,62.78,62.78,0,0,0,12-17.28,71,71,0,0,0,4.26-10.39l1.15.17c-.64,2.93-1.66,6.89-2.7,10.77a78.4,78.4,0,0,1-14.63,28.91,42.39,42.39,0,0,1-3.11,3.53A67.47,67.47,0,0,1,891.76,300a41.7,41.7,0,0,1-18.86,4.69,48.45,48.45,0,0,1-23.6-6.09,62.82,62.82,0,0,1-19.45-16.7,82.34,82.34,0,0,1-13.06-24.71,74.28,74.28,0,0,1-2.43-10.65,149.73,149.73,0,0,1-1.78-31.44l.81-18h0l.05-1.13c.27-5.84.81-6.68,1.94-9.85.3-.85.6-1.65.85-2.3a82.7,82.7,0,0,1,28.16-36.85c1.29-.93,2.5-1.74,3.57-2.37A51.52,51.52,0,0,1,895.47,143,55.56,55.56,0,0,1,913,156.75a61.8,61.8,0,0,1,11.43,20.53c2.68,7.89,6.67,31.57,6.67,40.39l-90.92,1.05C840.16,229.63,841.33,234.05,841.33,234.05Z"/><path d="M404.51,210.15a75.26,75.26,0,0,0-2-9.35c-.21-.73-.4-1.46-.56-2.21a55.46,55.46,0,0,0-1.73-5.51,97.62,97.62,0,0,0-10.09-20.66l-.07-.12a29.24,29.24,0,0,0-6.09-6.8c-.34-.28-.68-.54-1-.76a33,33,0,0,0-14.95-6,15.94,15.94,0,0,0-1.95-.14,20.28,20.28,0,0,0-12.68,4.55,38.76,38.76,0,0,0-10.22,12.79c-.27.52-.63,1.34-1,2.27a76.53,76.53,0,0,0-3.94,12.47c-1.09,4.82-2.44,11.54-2.6,15.87v0a15.76,15.76,0,0,0,.14,2.66c.7,5.17,3.59,25.69,5.8,29.08.35.53-11.55.17-11.61.34-1,3,2.77,18.9,5.71,30.27a69.26,69.26,0,0,0,11.16,23.66c.27.36.51.69.74,1a31.59,31.59,0,0,0,9.17,8.06,20.22,20.22,0,0,0,4.23,1.88,24.1,24.1,0,0,0,18.21-2.27,35.11,35.11,0,0,0,14-14.37l.08-.15a70,70,0,0,0,7.49-19.62c1.1-5,2.57-14.06,3.72-21.57A114,114,0,0,0,404.51,210.15Z"/><path d="M257.23,226.09a43.06,43.06,0,0,0-10.72,4.43c-.69.37-5.79,3.48-6.58,4.13-2,1.69-3.16,2.73-4.72,4.09L230.52,243a32,32,0,0,0-8.47,12.31c-2.06,5.46-2.38,10.91,7,7.12,2.11-.85.41,4.56-1.15,8.75a31.76,31.76,0,0,0-2,10.2v.13a28.66,28.66,0,0,0,.42,5.85v0a18.24,18.24,0,0,0,14.11,13,15.17,15.17,0,0,0,3.8.21c5.64-.47,10.81-3.89,15.45-7.31s13.86-16.14,18.91-20.7h0l3.28-46.76C276.39,227.92,272.48,222.14,257.23,226.09Z"/><path d="M895.17,164.24a35.9,35.9,0,0,0-2.49-4.45,17.68,17.68,0,0,0-1.64-1.94A34.68,34.68,0,0,0,867,147.15h0a9.28,9.28,0,0,0-5,1.29l-.07,0a12.22,12.22,0,0,0-5.93,9.29c0,.48-.11,1-.18,1.47s-.15.89-.23,1.32a30.64,30.64,0,0,1-.35,5.24c-.89,6-3.18,10.7-5.1,10.42-.77-.12-1.36-1-1.74-2.42a11.36,11.36,0,0,0-1.6-3.61,17.46,17.46,0,0,1-1.37-2.3c-.19-.37-.36-.73-.52-1.1a20,20,0,0,1-2.29,1.77,67.35,67.35,0,0,0-3.45,8.37c-1.78,5.34-2.87,27.41-3.26,33.44l70.33.38c0-3.56-1.82-14.59-3.32-23A87,87,0,0,0,895.17,164.24Z"/><path class="cls-1" d="M179.73,124.85q-3.66-40.42-23-63.46t-52.7-23A47.44,47.44,0,0,0,83.49,42.7,51.52,51.52,0,0,0,57.85,69.22a42.54,42.54,0,0,0-3.46,16.51c0,10.44,2.64,21.9,10.1,30s17.91,19.08,29.17,26.32,29.46,15.42,37.48,13.79c.28,5,20.83,18.64,32.09,27s23.89,16.73,31.36,27.16,11.19,22.6,11.19,36.51a88.18,88.18,0,0,1-6.12,32.82,75.35,75.35,0,0,1-18.15,26.95,88.44,88.44,0,0,1-29.17,18.25q-17.13,6.74-39.15,6.74a99.88,99.88,0,0,1-24.48-2.61A146,146,0,0,1,70,322.61Q63.42,320,57.5,317.4a31.43,31.43,0,0,0-12.84-2.61,10.2,10.2,0,0,0-9,5,26.9,26.9,0,0,0-4.07,11.52H24.69v-100h6.92q1.62,20,9.18,35.64A85.47,85.47,0,0,0,60,293.28,79.42,79.42,0,0,0,86.3,309.36a86.43,86.43,0,0,0,30.2,5.43,55.69,55.69,0,0,0,19.59-3.48,54.41,54.41,0,0,0,16.73-9.77,48.6,48.6,0,0,0,11.84-15.22,44.28,44.28,0,0,0,4.49-20.21c0-11.88-2.57-27.62-9.89-36.32s-48.79-50-44.36-26.55c1.15,6.07-5.9-9.9-18.31-18.22C84.56,177,72,170.9,61.18,162.64s-21-12.21-28.35-22.79-11-23.4-11-38.47a83.18,83.18,0,0,1,5.9-31.51A72.56,72.56,0,0,1,44.63,44.66a80,80,0,0,1,26-16.73A88.23,88.23,0,0,1,104,21.84q12.21,0,19.33,2.17t15.26,4.78a75.55,75.55,0,0,1,13.63,5.87,26.6,26.6,0,0,0,12.82,3.7q5.7,0,10.38-5.65t4.68-10.87h7.32v103Z"/><path class="cls-1" d="M308.56,296.1l.94.57a8.27,8.27,0,0,0,2.42,1.05,8.64,8.64,0,0,0,4.75-.25,13.21,13.21,0,0,0,5.22-3c2.32-2.62,6.78-10.23,9-14.11v2.06a31.2,31.2,0,0,1-10.53,23.47,1.07,1.07,0,0,0-.16.14c-5.36,4.66-8.35,3.51-13.26,3.37a6.93,6.93,0,0,1-1.1-.18,27,27,0,0,1-8-3.05l-.58-.34a25.53,25.53,0,0,1-3.75-2.63h0a19.36,19.36,0,0,1-3.91-4.51c-.19-.31-.39-.67-.6-1.06a33,33,0,0,1-3.36-9.78c-.42-2.35-.88-5.12-1.08-6.93a.7.7,0,0,0-1.22-.4c-2.85,3.25-7.17,8.46-9.65,11.06-2.83,3-6.71,7.2-10.22,9.81a70.38,70.38,0,0,1-12.21,6.34,42.56,42.56,0,0,1-11.73,3,75.23,75.23,0,0,1-8.22.17c-10.4-.33-18-3.76-23.78-11.28s-8.63-16.85-8.63-28q0-15.37,7.27-25.63c4.84-6.83,10-9.29,18.33-14.32,9.9-6,14.87-7.94,23.76-11.48s21.12-6.11,34-1.41l2.19-16.12c0-14.35-3.27-20.29-6.52-30.07-5.8-17.48-20-20.76-27.67-20.76-4.24,0-13.37,3.07-16.1,4.44a16.19,16.19,0,0,0-6.36,5.47c-1.51,2.28-4.64,5.45-5.15,8.29a26.49,26.49,0,0,0,0,9.1c1.66,8.74,23,10.38,16.4,20.75-2.41,3.82-8.59,8-15.6,6.37-3.93-.92-10.39-5.75-12.82-9.29A22.71,22.71,0,0,1,207,183.78a27.23,27.23,0,0,1,4.09-14.53c2.73-4.44,12.11-14.87,16.86-18.17s16.88-6.87,22.71-2.23a.05.05,0,0,0,.08,0c5.14-5.69,7.71-6.08,11.55-5.71a34.26,34.26,0,0,1,9.76,2.48,40.47,40.47,0,0,1,5.09,2.58,44.68,44.68,0,0,1,18.72,22.54c.11.3.23.6.35.91a90.33,90.33,0,0,1,5.69,34.14c-.54,21.27.28,57.47.65,71.65a39.28,39.28,0,0,0,1.68,10.2,1.86,1.86,0,0,0,.11.33,25.52,25.52,0,0,0,1,2.54c.58,1.27,2.25,4.51,2.25,4.51m-25.75-69.15c-5.45,2-9.36-3.73-24.61.22a43.06,43.06,0,0,0-10.72,4.43c-.69.37-5.79,3.48-6.58,4.13-2,1.69-3.16,2.73-4.72,4.09L230.52,243a32,32,0,0,0-8.47,12.31c-2.06,5.46-2.38,10.91,7,7.12,2.11-.85.41,4.56-1.15,8.75a31.76,31.76,0,0,0-2,10.2v.13a28.66,28.66,0,0,0,.42,5.85v0a18.24,18.24,0,0,0,14.11,13,15.17,15.17,0,0,0,3.8.21c5.64-.47,10.81-3.89,15.45-7.31s13.86-16.14,18.91-20.7h0Z"/><path class="cls-1" d="M434.17,298.88V310h-31.8V288.17l-3.28.08a35,35,0,0,1-5.26,6.85c-3,3.18-6.1,6.06-8.75,8.41a29.23,29.23,0,0,1-16.94,7.28H368a32.74,32.74,0,0,1-6.26-.09l-1.16-.13a36.78,36.78,0,0,1-8.66-2.05l-.1,0a50.29,50.29,0,0,1-6.28-2.8c-6.34-3.35-9.44-5.4-9.44-5.4s-10.9-7.8-15.26-15a95.34,95.34,0,0,1-10.36-25.08,116.65,116.65,0,0,1-3.81-30.14,99.06,99.06,0,0,1,4.77-30.63A97.09,97.09,0,0,1,324.41,173a39.33,39.33,0,0,1,5.28-5.82,58.25,58.25,0,0,1,29.13-14.36l.64-.1c3.22-.52,8.68.19,11.64.65a14.1,14.1,0,0,1,4.43,1.47h0a67.76,67.76,0,0,1,24.1,21.72c1,1.45,1.93,2.76,2.7,3.72l1.09-60c0-8.75.06-49.94,0-54.25-3.6,0-6.83,0-7.76,0-.51,0-19.18,0-20,0-1,0-4.19,0-5.15,0v-8h55.6c-1.44,1.45-5.57,3.41-5.57,4.73V282.5c0,5.27,0-2.51,0,16.24M402.47,200.8c-.21-.73-.4-1.46-.56-2.21a55.46,55.46,0,0,0-1.73-5.51,97.62,97.62,0,0,0-10.09-20.66l-.07-.12a29.24,29.24,0,0,0-6.09-6.8c-.34-.28-.68-.54-1-.76a33,33,0,0,0-14.95-6,15.94,15.94,0,0,0-1.95-.14,20.28,20.28,0,0,0-12.68,4.55,38.76,38.76,0,0,0-10.22,12.79c-.27.52-.63,1.34-1,2.27a76.53,76.53,0,0,0-3.94,12.47c-1.09,4.82-2.44,11.54-2.6,15.87v0a15.76,15.76,0,0,0,.14,2.66c.7,5.17,3.59,25.69,5.8,29.08.35.53-11.55.17-11.61.34-1,3,2.77,18.9,5.71,30.27a69.26,69.26,0,0,0,11.16,23.66c.27.36.51.69.74,1a31.59,31.59,0,0,0,9.17,8.06,20.22,20.22,0,0,0,4.23,1.88,24.1,24.1,0,0,0,18.21-2.27,35.11,35.11,0,0,0,14-14.37l.08-.15a70,70,0,0,0,7.49-19.62c1.1-5,2.57-14.06,3.72-21.57a114,114,0,0,0,0-35.37A75.26,75.26,0,0,0,402.47,200.8Z"/><path class="cls-1" d="M604.57,44.43v95.4a1.39,1.39,0,0,1-2.76.27C598.22,122,592,84.18,583.13,74.74c-9-9.63-23.49-21-43.35-21H471.26a1.4,1.4,0,0,0-1.4,1.4c0,13.26-2.34,38.53,6.22,53.77,3.26,5.81,2.47,12.65-.57,18.52-1.25,2.42-5.65,0-5.65,2.32v41.68a1.42,1.42,0,0,0,.41,1,1.36,1.36,0,0,0,1,.41l18.88-1.39a41.89,41.89,0,0,0,15-4.17,50.86,50.86,0,0,0,5.33-2.78c5.91-3.53,6.21-4.51,7.25-5.51A58.22,58.22,0,0,0,529,142.59c2.92-5.48,8.19-24.29,6.39-35.1l6.48,0h0l0,142.67h-5c-.13-9.48-4.61-27.14-6.78-32.5a38.79,38.79,0,0,0-9.56-14.89,35.7,35.7,0,0,0-14-8c-5.33-1.63-10-3.34-17.34-4.63-4.4-.79-17.89-2.19-17.89-2.19a1.4,1.4,0,0,0-1.4,1.4l.1,22.88a12.72,12.72,0,0,0,1.39,5.74,123.14,123.14,0,0,1,9.76,30.84c1.06,6.46-4,8.88-10,11.57-.7.32-1.16,1.12-1.27,2.68-1.09,14.74-.15,22.24-.05,32.05a.85.85,0,0,1-1.51.55c-3.44-4.41-2.37,2.5,1.5,6.07h0c-.05,4.45,0,4.4,0,5.38,0,4,0,6.67,0,11.86a1.44,1.44,0,0,0,1.41,1.45c5.14.06,11.8,0,16.42,0h43.48c10.68,0,11.5.43,20-3.28s14.91-10.95,21.58-17.18S584,284.2,588.9,275.75c4.68-8.08,9.78-45.95,10.37-55.54a1.38,1.38,0,0,1,1.35-1.29h3.64a1.41,1.41,0,0,1,1.41,1.41l-1.1,109.41a1.41,1.41,0,0,1-1.4,1.41H407.45a1.41,1.41,0,0,1-1.4-1.41v-8.83a1.4,1.4,0,0,1,1.4-1.4c7.25,0,14.51-.05,18.38,0,6.71.07,5.62.06,10.64,0a1.38,1.38,0,0,0,1.36-1.37c.06-4.48,0-5.94,0-10.87,0-6.52,0-11.78,0-19.79V81.18c0-8,0-13.68,0-19.78-.07-5.93,0-6.79,0-13.11h0c-5.24.06-17.28,0-22.89,0-6.26,0-7.21.07-14.32,0h0c-.09-1.3,0-1.62,0-4.12V37.53H597.67A6.9,6.9,0,0,1,604.57,44.43Z"/><path class="cls-1" d="M648.17,303.14c-.14-5.65,0-18.12,0-30.53v-93.3c-1.89-.22-3.36-2.19-3.36-4.62s1.47-4.4,3.36-4.62V166a3.22,3.22,0,0,0,.92.15c3.83,0,6.92-6.52,6.92-14.56S652.92,137,649.09,137a3.6,3.6,0,0,0-.92.14v-1.72a4.29,4.29,0,0,1-.23-6.75,4.26,4.26,0,0,1,.23-7.46V55.42H604.48v9.17c1.4,0,10.26,0,11.58,0,.59,0,14.26,0,14.77,0,0,7.45,0,13.17,0,18.09.08,5.3,0,11.77,0,21.65V272.61c0,6.08.1,11,0,15.57-.09,4.36-.06,9.9,0,15-1.25,0-8.63,0-13.29,0-3.77,0-7.24,0-13.06,0v10.12h71V303.14C664.12,303.14,659.89,303.28,648.17,303.14Z"/><path class="cls-1" d="M708.43,133.39a16.51,16.51,0,0,0,12.51-5.48,19.5,19.5,0,0,0,0-26.41,17,17,0,0,0-25,0,19.5,19.5,0,0,0,0,26.41A16.49,16.49,0,0,0,708.43,133.39Z"/><path class="cls-1" d="M731.86,303a4.61,4.61,0,0,1-7.92,0h-3.47c-.06-5.28,0-18.73,0-29.76V195.36l-.56-1.92,2.7-.78a3.89,3.89,0,0,1,3.17-1.64,3.84,3.84,0,0,1,2.35.81,15.44,15.44,0,0,0,.44-3.7,12.66,12.66,0,0,0-1.8-6.92c-.24-1.29-1.89-2.24-3.88-2.15a5.47,5.47,0,0,0-.72.08,3.17,3.17,0,0,0-1.7-1.73v-1.54a5,5,0,0,1-2.34-3c-.7-2.42.34-4.84,2.34-5.51V151.24H680.34v6.36c2.49.06,5.71,0,7.51,0s7,0,10,0a1.87,1.87,0,0,1,1.88,1.87c0,5.06.06,17.39,0,21.6s0,10.47,0,19.25v.8c4,2.1,6.85,6.87,6.85,12.42s-2.77,10.23-6.74,12.36l.22,47.34c0,5.4.16,10.28,0,14.12-.19,4.17,0,12,0,15.93H681.73v6.08l57.46-.24v-6.08Z"/><path class="cls-1" d="M813.54,268.15c-1,2.65-5.6,9.91-9,15.14a28.3,28.3,0,0,1-13.24,10.95,11.6,11.6,0,0,1-3.94.95,13.13,13.13,0,0,1-1.47-.09c-.52-5.37-4.55-9.55-9.45-9.55a8.58,8.58,0,0,0-4.35,1.19,25.66,25.66,0,0,1-1.94-10.84V155.63h34.75v-7.91l-23.29-.16a1.63,1.63,0,0,1-3.26,0l-2.51,0A2.14,2.14,0,0,1,774,149a2.17,2.17,0,0,1-1.86-1.49l-2.27,0-1.09-68.93-6.26-.69c.42,3.44.69,8.16.87,12.81A72.86,72.86,0,0,1,756,125.54c-.58,1.16-1.12,2.2-1.63,3-3.52,5.85-10,11.53-15.11,13-8.13,2.24-8.81,1.51-13.64,1.51l.06,12.59h21.72l.22,119.73a67.29,67.29,0,0,0,.43,7.44,34.57,34.57,0,0,0,12.12,22.74,4.32,4.32,0,0,1,1.73-.36,4.37,4.37,0,0,1,4.37,4.37h0A18.39,18.39,0,0,0,770,311a26.87,26.87,0,0,0,4.84.72c14.65.91,28.19-7.72,34.3-21.06a85.29,85.29,0,0,0,5.46-14.83Z"/><path class="cls-1" d="M924.15,254.27a62.78,62.78,0,0,1-12,17.28,34.29,34.29,0,0,1-2.71,2.5,47.72,47.72,0,0,1-13.95,7.84l-1.13.38c4,12.38-2.78,11.55-10.69,11.84C871.28,298,856.21,286,851,269.29c-.88-2.79-2.62-8-2.62-8l-.57-2-.43-1.69-6-23.48s-1.17-4.42-1.17-15.33l90.92-1.05c0-8.82-4-32.5-6.67-40.39A61.8,61.8,0,0,0,913,156.75,55.56,55.56,0,0,0,895.47,143,51.52,51.52,0,0,0,848,144.57c-1.07.63-2.28,1.44-3.57,2.37a82.7,82.7,0,0,0-28.16,36.85c-.25.64-.55,1.45-.85,2.3-1.13,3.17-1.67,4-1.94,9.85l-.86,19.13a149.73,149.73,0,0,0,1.78,31.44,74.28,74.28,0,0,0,2.43,10.65,82.34,82.34,0,0,0,13.06,24.71,62.82,62.82,0,0,0,19.45,16.7,48.45,48.45,0,0,0,23.6,6.09A41.7,41.7,0,0,0,891.76,300a67.47,67.47,0,0,0,17.36-12.71,42.39,42.39,0,0,0,3.11-3.53,78.4,78.4,0,0,0,14.63-28.91c1-3.88,2.06-7.84,2.7-10.77l-1.15-.17A71,71,0,0,1,924.15,254.27Zm-88.36-43.9c.39-6,1.48-28.1,3.26-33.44a67.35,67.35,0,0,1,3.45-8.37,20,20,0,0,0,2.29-1.77c.16.37.33.73.52,1.1a17.46,17.46,0,0,0,1.37,2.3,11.36,11.36,0,0,1,1.6,3.61c.38,1.41,1,2.3,1.74,2.42,1.92.28,4.21-4.38,5.1-10.42a30.64,30.64,0,0,0,.35-5.24c.08-.43.16-.87.23-1.32s.13-1,.18-1.47a12.22,12.22,0,0,1,5.93-9.29l.07,0a9.28,9.28,0,0,1,5-1.29h0A34.68,34.68,0,0,1,891,157.85a17.68,17.68,0,0,1,1.64,1.94,35.9,35.9,0,0,1,2.49,4.45,87,87,0,0,1,7.63,23.48c1.5,8.44,3.32,19.47,3.32,23Zm-20.41-24.28c-1,2.95-1.21,3.57-1.8,8.67-.09.77-.15,1.54-.19,2.31l-.81,18"/></g></g></svg>